<svg width="21" height="19" viewBox="0 0 21 19" fill="none" xmlns="http://www.w3.org/2000/svg">
<path d="M3.9039 2.88889H17.9135C19.3366 2.88889 20.3414 4.15198 19.8914 5.3751L18.154 10.0974C17.8702 10.8686 17.0735 11.3889 16.1762 11.3889H5.24416M3.9039 2.88889L3.86179 2.62176C3.71506 1.6912 2.83541 1 1.79788 1H1M3.9039 2.88889L5.24416 11.3889M5.24416 11.3889L5.43521 12.6004C5.58194 13.531 6.46158 14.2222 7.49911 14.2222H16.6364M16.6364 14.2222C15.485 14.2222 14.5516 15.0679 14.5516 16.1111C14.5516 17.1543 15.485 18 16.6364 18C17.7879 18 18.7213 17.1543 18.7213 16.1111C18.7213 15.0679 17.7879 14.2222 16.6364 14.2222ZM10.3819 16.1111C10.3819 17.1543 9.44846 18 8.297 18C7.14556 18 6.21214 17.1543 6.21214 16.1111C6.21214 15.0679 7.14556 14.2222 8.297 14.2222C9.44846 14.2222 10.3819 15.0679 10.3819 16.1111Z" stroke="white" stroke-width="1.5" stroke-linecap="round" stroke-linejoin="round"/>
</svg>
