<svg width="102" height="101" viewBox="0 0 102 101" fill="none" xmlns="http://www.w3.org/2000/svg">
<g filter="url(#filter0_d_39_2110)">
<circle cx="51" cy="44" r="36" fill="white"/>
</g>
<g clip-path="url(#clip0_39_2110)">
<path d="M60.4704 45.8337V43.1393C60.4704 37.8953 56.2193 33.6433 50.9744 33.6433C45.7295 33.6433 41.4784 37.8953 41.4784 43.1394V45.8337C41.4784 51.0779 45.7295 55.3298 50.9744 55.3298C56.2193 55.3298 60.4704 51.0778 60.4704 45.8337Z" fill="#09A5D8"/>
<path d="M65.3978 39.3801C63.7278 32.9265 57.8744 28.1446 50.9049 28.1429C43.9107 28.1446 38.0424 32.9596 36.3938 39.4471C35.5754 39.7984 35 40.6111 35 41.5586V47.3028C35 48.571 36.0301 49.6003 37.2967 49.6003C38.5666 49.6003 39.595 48.5711 39.595 47.3028V41.5586C39.595 40.6648 39.0791 39.8993 38.3334 39.5189C38.9551 37.362 40.1059 35.4282 41.6536 33.8797C44.028 31.5069 47.2953 30.0411 50.9049 30.0411C54.5144 30.0411 57.7817 31.507 60.1562 33.8797C61.7237 35.4497 62.8861 37.4165 63.4996 39.6099C62.8448 40.0142 62.405 40.7326 62.405 41.5586V47.3028C62.405 48.2131 62.9374 48.9934 63.7063 49.3647C63.4003 50.5171 62.9622 51.6102 62.4381 52.5716C61.9256 53.515 61.3352 54.3293 60.7251 54.9526C60.2687 54.6088 59.7066 54.3979 59.093 54.3979C57.5851 54.3979 56.3631 55.6198 56.3631 57.127C56.3631 58.6341 57.5851 59.8569 59.093 59.8569C60.5994 59.8569 61.823 58.6341 61.823 57.127C61.823 56.7914 61.7535 56.473 61.6427 56.1754L61.7816 56.0448C63.2946 54.4996 64.5579 52.1566 65.2143 49.5383C66.2361 49.3043 67 48.3941 67 47.3028V41.5586C67 40.535 66.3254 39.6769 65.3978 39.3801Z" fill="#09A5D8"/>
</g>
<defs>
<filter id="filter0_d_39_2110" x="0.714287" y="4.76837e-07" width="100.571" height="100.571" filterUnits="userSpaceOnUse" color-interpolation-filters="sRGB">
<feFlood flood-opacity="0" result="BackgroundImageFix"/>
<feColorMatrix in="SourceAlpha" type="matrix" values="0 0 0 0 0 0 0 0 0 0 0 0 0 0 0 0 0 0 127 0" result="hardAlpha"/>
<feOffset dy="6.28571"/>
<feGaussianBlur stdDeviation="7.14286"/>
<feComposite in2="hardAlpha" operator="out"/>
<feColorMatrix type="matrix" values="0 0 0 0 0 0 0 0 0 0 0 0 0 0 0 0 0 0 0.06 0"/>
<feBlend mode="normal" in2="BackgroundImageFix" result="effect1_dropShadow_39_2110"/>
<feBlend mode="normal" in="SourceGraphic" in2="effect1_dropShadow_39_2110" result="shape"/>
</filter>
<clipPath id="clip0_39_2110">
<rect width="32" height="32" fill="white" transform="translate(35 28)"/>
</clipPath>
</defs>
</svg>
