<svg width="102" height="101" viewBox="0 0 102 101" fill="none" xmlns="http://www.w3.org/2000/svg">
<g filter="url(#filter0_d_39_2123)">
<circle cx="51" cy="44" r="36" fill="white"/>
</g>
<path d="M62 48H43V38C43 37.4 42.6 37 42 37C41.4 37 41 37.4 41 38V48H40C38.3 48 37 49.3 37 51V57C37 57.6 37.4 58 38 58H64C64.6 58 65 57.6 65 57V51C65 49.3 63.7 48 62 48ZM53 54H52C51.4 54 51 53.6 51 53C51 52.4 51.4 52 52 52H53C53.6 52 54 52.4 54 53C54 53.6 53.6 54 53 54ZM60 54H56C55.4 54 55 53.6 55 53C55 52.4 55.4 52 56 52H60C60.6 52 61 52.4 61 53C61 53.6 60.6 54 60 54Z" fill="#09A5D8"/>
<path d="M53 38C53 40.7 51.9 43.2 50 45.1C49.6 45.5 49.6 46.1 50 46.5C50.2 46.7 50.5 46.8 50.7 46.8C51 46.8 51.2 46.7 51.4 46.5C53.7 44.2 55 41.2 55 37.9C55 34.6 53.7 31.6 51.4 29.3C51 28.9 50.4 28.9 50 29.3C49.6 29.7 49.6 30.3 50 30.7C51.9 32.8 53 35.3 53 38Z" fill="#09A5D8"/>
<path d="M49 38C49 39.6 48.4 41.2 47.2 42.3C46.8 42.7 46.8 43.3 47.2 43.7C47.4 43.9 47.7 44 47.9 44C48.2 44 48.4 43.9 48.6 43.7C50.2 42.2 51 40.1 51 38C51 35.9 50.1 33.8 48.6 32.3C48.2 31.9 47.6 31.9 47.2 32.3C46.8 32.7 46.8 33.3 47.2 33.7C48.4 34.8 49 36.4 49 38Z" fill="#09A5D8"/>
<path d="M44.3 40.9C44.5 41.1 44.8 41.2 45 41.2C45.2 41.2 45.5 41.1 45.7 40.9C46.5 40.1 47 39.1 47 38C47 36.9 46.5 35.9 45.7 35.1C45.3 34.7 44.7 34.7 44.3 35.1C43.9 35.5 43.9 36.1 44.3 36.5C44.8 36.9 45 37.4 45 38C45 38.6 44.8 39.1 44.4 39.5C44 39.8 43.9 40.5 44.3 40.9Z" fill="#09A5D8"/>
<defs>
<filter id="filter0_d_39_2123" x="0.714286" y="0" width="100.571" height="100.571" filterUnits="userSpaceOnUse" color-interpolation-filters="sRGB">
<feFlood flood-opacity="0" result="BackgroundImageFix"/>
<feColorMatrix in="SourceAlpha" type="matrix" values="0 0 0 0 0 0 0 0 0 0 0 0 0 0 0 0 0 0 127 0" result="hardAlpha"/>
<feOffset dy="6.28571"/>
<feGaussianBlur stdDeviation="7.14286"/>
<feComposite in2="hardAlpha" operator="out"/>
<feColorMatrix type="matrix" values="0 0 0 0 0 0 0 0 0 0 0 0 0 0 0 0 0 0 0.06 0"/>
<feBlend mode="normal" in2="BackgroundImageFix" result="effect1_dropShadow_39_2123"/>
<feBlend mode="normal" in="SourceGraphic" in2="effect1_dropShadow_39_2123" result="shape"/>
</filter>
</defs>
</svg>
