<svg width="102" height="101" viewBox="0 0 102 101" fill="none" xmlns="http://www.w3.org/2000/svg">
<g filter="url(#filter0_d_39_2244)">
<circle cx="51" cy="44" r="36" fill="white"/>
</g>
<g clip-path="url(#clip0_39_2244)">
<path d="M64.4098 36.2394C64.3933 35.3755 64.3777 34.5593 64.3777 33.7697C64.3777 33.1511 63.8763 32.6496 63.2576 32.6496C58.4674 32.6496 54.8202 31.273 51.7802 28.3172C51.3453 27.8942 50.6532 27.8944 50.2185 28.3172C47.1787 31.273 43.5322 32.6496 38.7423 32.6496C38.1237 32.6496 37.6222 33.1511 37.6222 33.7697C37.6222 34.5594 37.6067 35.3759 37.5901 36.24C37.4366 44.2801 37.2263 55.2914 50.6325 59.9383C50.7513 59.9795 50.8753 60.0001 50.9993 60.0001C51.1232 60.0001 51.2473 59.9795 51.366 59.9383C64.7733 55.2913 64.5633 44.2797 64.4098 36.2394ZM50.9994 57.6914C39.5018 53.5147 39.6757 44.3651 39.8299 36.2827C39.8392 35.7977 39.8482 35.3275 39.8544 34.8666C44.3407 34.6773 47.9283 33.3178 50.9994 30.6424C54.0708 33.3178 57.659 34.6774 62.1456 34.8666C62.1518 35.3274 62.1608 35.7972 62.1701 36.282C62.3242 44.3646 62.4979 53.5145 50.9994 57.6914Z" fill="#09A5D8"/>
<path d="M54.8565 40.109L49.4504 45.5148L47.1435 43.2079C46.7061 42.7706 45.9968 42.7706 45.5595 43.2079C45.1221 43.6455 45.1221 44.3546 45.5595 44.792L48.6584 47.8909C48.8771 48.1095 49.1638 48.2188 49.4504 48.2188C49.737 48.2188 50.0237 48.1095 50.2424 47.8909L56.4403 41.6931C56.8779 41.2557 56.8779 40.5464 56.4405 40.1092C56.0032 39.6717 55.2939 39.6716 54.8565 40.109Z" fill="#09A5D8"/>
</g>
<defs>
<filter id="filter0_d_39_2244" x="0.714286" y="0" width="100.571" height="100.571" filterUnits="userSpaceOnUse" color-interpolation-filters="sRGB">
<feFlood flood-opacity="0" result="BackgroundImageFix"/>
<feColorMatrix in="SourceAlpha" type="matrix" values="0 0 0 0 0 0 0 0 0 0 0 0 0 0 0 0 0 0 127 0" result="hardAlpha"/>
<feOffset dy="6.28571"/>
<feGaussianBlur stdDeviation="7.14286"/>
<feComposite in2="hardAlpha" operator="out"/>
<feColorMatrix type="matrix" values="0 0 0 0 0 0 0 0 0 0 0 0 0 0 0 0 0 0 0.06 0"/>
<feBlend mode="normal" in2="BackgroundImageFix" result="effect1_dropShadow_39_2244"/>
<feBlend mode="normal" in="SourceGraphic" in2="effect1_dropShadow_39_2244" result="shape"/>
</filter>
<clipPath id="clip0_39_2244">
<rect width="32" height="32" fill="white" transform="translate(35 28)"/>
</clipPath>
</defs>
</svg>
