<svg width="102" height="101" viewBox="0 0 102 101" fill="none" xmlns="http://www.w3.org/2000/svg">
<g filter="url(#filter0_d_39_2117)">
<circle cx="51" cy="44" r="36" fill="white"/>
</g>
<g clip-path="url(#clip0_39_2117)">
<path d="M38.871 49.5741H63.129C64.0546 49.5741 64.8054 48.8229 64.8054 47.8973V33.6229C64.8054 32.6981 64.0546 31.9473 63.129 31.9473H38.871C37.9454 31.9473 37.1954 32.698 37.1954 33.6229V47.8973C37.1954 48.8229 37.9454 49.5741 38.871 49.5741ZM39.7579 34.1993H62.2422V46.9273H39.7579V34.1993Z" fill="#09A5D8"/>
<path d="M66.7516 54.2256L63.7615 51.5713C63.5693 51.4012 63.2927 51.3047 63.0008 51.3047H38.9987C38.7072 51.3047 38.4303 51.4012 38.2385 51.5713L35.248 54.2256C35.0878 54.3671 35 54.5495 35 54.7382V55.663C35 55.879 35.2255 56.0526 35.504 56.0526H66.4961C66.7754 56.0526 67.0001 55.879 67.0001 55.663V54.7382C67 54.5495 66.9117 54.3671 66.7516 54.2256ZM47.5711 54.5388L48.4366 53.3687H53.9199L54.7842 54.5388H47.5711Z" fill="#09A5D8"/>
<path d="M46.8214 40.5599L46.5438 40.5203C45.8329 40.4211 45.5782 40.1735 45.5782 39.8107C45.5782 39.4017 45.8714 39.1082 46.4046 39.1082C46.8444 39.1082 47.2384 39.2391 47.6632 39.5172L47.7712 39.4938L48.1422 38.9222L48.1264 38.8147C47.7095 38.4978 47.0837 38.2902 46.4279 38.2902C45.3468 38.2902 44.6518 38.9222 44.6518 39.8728C44.6518 40.745 45.223 41.2315 46.2344 41.3704L46.5129 41.4092C47.2384 41.5092 47.4698 41.756 47.4698 42.1346C47.4698 42.5741 47.1071 42.8913 46.4817 42.8913C45.8947 42.8913 45.3927 42.6057 45.0533 42.336L44.9453 42.3431L44.4663 42.8993L44.4817 43.0156C44.8911 43.4012 45.6403 43.7094 46.4121 43.7094C47.7178 43.7094 48.3894 43.0156 48.3894 42.0813C48.3895 41.177 47.8329 40.6979 46.8214 40.5599Z" fill="#09A5D8"/>
<path d="M49.3705 38.3741L49.2933 38.4512V43.5485L49.3705 43.6256H52.6596L52.7371 43.5485V42.8843L52.6596 42.8072H50.251L50.2047 42.7601V41.4322L50.251 41.386H52.2819L52.3594 41.3088V40.6446L52.2819 40.5675H50.251L50.2047 40.5204V39.2392L50.251 39.193H52.6596L52.7371 39.1154V38.4512L52.6596 38.3741H49.3705Z" fill="#09A5D8"/>
<path d="M55.5338 38.2902C54.6299 38.2902 53.9507 38.7217 53.6801 39.5555C53.5721 39.8799 53.5409 40.1734 53.5409 40.9997C53.5409 41.8261 53.5721 42.1196 53.6801 42.444C53.9507 43.2778 54.6299 43.7093 55.5338 43.7093C56.4448 43.7093 57.1235 43.2778 57.3941 42.444C57.5025 42.1196 57.5338 41.8261 57.5338 40.9997C57.5338 40.1734 57.5025 39.8799 57.3941 39.5555C57.1236 38.7217 56.4448 38.2902 55.5338 38.2902ZM56.514 42.2038C56.3673 42.6295 56.0588 42.8913 55.5338 42.8913C55.0161 42.8913 54.7075 42.6295 54.5603 42.2038C54.499 42.0108 54.4678 41.7406 54.4678 40.9997C54.4678 40.2505 54.499 39.9887 54.5603 39.7948C54.7075 39.37 55.016 39.1082 55.5338 39.1082C56.0588 39.1082 56.3673 39.37 56.514 39.7948C56.5753 39.9887 56.6074 40.2505 56.6074 40.9997C56.6074 41.7407 56.5753 42.0108 56.514 42.2038Z" fill="#09A5D8"/>
</g>
<defs>
<filter id="filter0_d_39_2117" x="0.714286" y="0" width="100.571" height="100.571" filterUnits="userSpaceOnUse" color-interpolation-filters="sRGB">
<feFlood flood-opacity="0" result="BackgroundImageFix"/>
<feColorMatrix in="SourceAlpha" type="matrix" values="0 0 0 0 0 0 0 0 0 0 0 0 0 0 0 0 0 0 127 0" result="hardAlpha"/>
<feOffset dy="6.28571"/>
<feGaussianBlur stdDeviation="7.14286"/>
<feComposite in2="hardAlpha" operator="out"/>
<feColorMatrix type="matrix" values="0 0 0 0 0 0 0 0 0 0 0 0 0 0 0 0 0 0 0.06 0"/>
<feBlend mode="normal" in2="BackgroundImageFix" result="effect1_dropShadow_39_2117"/>
<feBlend mode="normal" in="SourceGraphic" in2="effect1_dropShadow_39_2117" result="shape"/>
</filter>
<clipPath id="clip0_39_2117">
<rect width="32" height="32" fill="white" transform="translate(35 28)"/>
</clipPath>
</defs>
</svg>
