<svg width="102" height="101" viewBox="0 0 102 101" fill="none" xmlns="http://www.w3.org/2000/svg">
<g filter="url(#filter0_d_39_2235)">
<circle cx="51" cy="44" r="36" fill="white"/>
</g>
<path d="M50.97 49.915C50.9955 49.9348 51.0243 49.95 51.055 49.96C51.0848 49.9752 51.1169 49.9854 51.15 49.99C51.2826 49.99 51.4098 49.9373 51.5035 49.8435C51.5973 49.7498 51.65 49.6226 51.65 49.49C51.65 49.3574 51.5973 49.2302 51.5035 49.1364C51.4098 49.0427 51.2826 48.99 51.15 48.99C51.1169 48.9946 51.0848 49.0048 51.055 49.02C51.0243 49.03 50.9955 49.0452 50.97 49.065L50.89 49.125C50.8431 49.1715 50.8059 49.2268 50.7805 49.2877C50.7552 49.3486 50.7421 49.414 50.7421 49.48C50.7421 49.546 50.7552 49.6113 50.7805 49.6723C50.8059 49.7332 50.8431 49.7885 50.89 49.835L50.97 49.915Z" fill="#09A5D8"/>
<path d="M63.035 46.2451C62.6604 46.2469 62.2966 46.3703 61.9982 46.5966C61.6998 46.8229 61.4828 47.1399 61.38 47.5001H60.095V45.5001H63.465C63.5378 45.4989 63.6095 45.4818 63.675 45.4501C66.75 42.0451 64.175 36.2901 59.675 36.0501C58.7291 34.8837 57.441 34.0436 55.9924 33.648C54.5437 33.2524 53.0074 33.3213 51.6 33.8451C49.26 28.1051 41.04 29.5301 40.66 35.7001C39.7024 35.987 38.8346 36.5151 38.1398 37.2337C37.445 37.9524 36.9464 38.8375 36.6919 39.8042C36.4375 40.7709 36.4356 41.7867 36.6865 42.7543C36.9375 43.722 37.4328 44.6089 38.125 45.3301C38.1718 45.3834 38.2295 45.4262 38.2942 45.4555C38.3588 45.4848 38.429 45.5 38.5 45.5001H41.92V47.5001H40.62C40.5 47.1014 40.2406 46.7591 39.8892 46.5358C39.5378 46.3125 39.1178 46.2229 38.7059 46.2836C38.294 46.3442 37.9176 46.551 37.6455 46.8661C37.3733 47.1812 37.2236 47.5837 37.2236 48.0001C37.2236 48.4164 37.3733 48.8189 37.6455 49.1341C37.9176 49.4492 38.294 49.6559 38.7059 49.7166C39.1178 49.7772 39.5378 49.6877 39.8892 49.4644C40.2406 49.241 40.5 48.8988 40.62 48.5001H42.39C42.4575 48.5018 42.5246 48.4898 42.5873 48.4649C42.6501 48.44 42.7071 48.4026 42.755 48.3551C42.8019 48.3078 42.8389 48.2515 42.8638 48.1897C42.8887 48.1279 42.901 48.0617 42.9 47.9951V45.5001H45.83V52.0001H43.08C42.96 51.6014 42.7006 51.2591 42.3492 51.0358C41.9978 50.8125 41.5778 50.7229 41.1659 50.7836C40.754 50.8442 40.3776 51.051 40.1055 51.3661C39.8333 51.6812 39.6836 52.0837 39.6836 52.5001C39.6836 52.9164 39.8333 53.3189 40.1055 53.6341C40.3776 53.9492 40.754 54.1559 41.1659 54.2166C41.5778 54.2772 41.9978 54.1877 42.3492 53.9644C42.7006 53.741 42.96 53.3988 43.08 53.0001H46.335C46.4676 53.0001 46.5948 52.9474 46.6885 52.8536C46.7823 52.7599 46.835 52.6327 46.835 52.5001V45.5001H50.745V48.0001C50.745 48.1327 50.7977 48.2599 50.8914 48.3536C50.9852 48.4474 51.1124 48.5001 51.245 48.5001C51.3776 48.5001 51.5048 48.4474 51.5985 48.3536C51.6923 48.2599 51.745 48.1327 51.745 48.0001V45.5001H55.165V52.5001C55.165 52.6327 55.2177 52.7599 55.3114 52.8536C55.4052 52.9474 55.5324 53.0001 55.665 53.0001H58.9C59.02 53.3988 59.2793 53.741 59.6307 53.9644C59.9821 54.1877 60.4021 54.2772 60.8141 54.2166C61.226 54.1559 61.6024 53.9492 61.8745 53.6341C62.1466 53.3189 62.2964 52.9164 62.2964 52.5001C62.2964 52.0837 62.1466 51.6812 61.8745 51.3661C61.6024 51.051 61.226 50.8442 60.8141 50.7836C60.4021 50.7229 59.9821 50.8125 59.6307 51.0358C59.2793 51.2591 59.02 51.6014 58.9 52.0001H56.165V45.5001H59.095V48.0001C59.0939 48.0667 59.1062 48.1329 59.1311 48.1947C59.156 48.2565 59.193 48.3128 59.24 48.3601C59.2879 48.4076 59.3449 48.445 59.4077 48.4699C59.4704 48.4948 59.5375 48.5068 59.605 48.5051H61.375C61.4685 48.8125 61.6456 49.0879 61.8865 49.3006C62.1274 49.5133 62.4226 49.655 62.7393 49.7097C63.0559 49.7645 63.3816 49.7302 63.6799 49.6107C63.9782 49.4913 64.2375 49.2913 64.4288 49.0331C64.6202 48.7749 64.736 48.4687 64.7635 48.1485C64.791 47.8283 64.729 47.5068 64.5845 47.2198C64.44 46.9327 64.2186 46.6915 63.945 46.5229C63.6714 46.3544 63.3563 46.2651 63.035 46.2651V46.2451ZM38.965 48.7451C38.7661 48.7451 38.5753 48.6661 38.4347 48.5254C38.294 48.3848 38.215 48.194 38.215 47.9951C38.215 47.7962 38.294 47.6054 38.4347 47.4647C38.5753 47.3241 38.7661 47.2451 38.965 47.2451C39.1632 47.2451 39.3534 47.3238 39.4935 47.464C39.6337 47.6042 39.7125 47.7943 39.7125 47.9926C39.7125 48.1908 39.6337 48.381 39.4935 48.5211C39.3534 48.6613 39.1632 48.7401 38.965 48.7401V48.7451ZM41.42 53.2451C41.2211 53.2451 41.0303 53.1661 40.8897 53.0254C40.749 52.8848 40.67 52.694 40.67 52.4951C40.67 52.2962 40.749 52.1054 40.8897 51.9647C41.0303 51.8241 41.2211 51.7451 41.42 51.7451C41.6176 51.7451 41.8071 51.8236 41.9468 51.9633C42.0865 52.103 42.165 52.2925 42.165 52.4901C42.165 52.6877 42.0865 52.8772 41.9468 53.0169C41.8071 53.1566 41.6176 53.2351 41.42 53.2351V53.2451ZM60.555 51.7451C60.7539 51.7451 60.9447 51.8241 61.0853 51.9647C61.226 52.1054 61.305 52.2962 61.305 52.4951C61.305 52.694 61.226 52.8848 61.0853 53.0254C60.9447 53.1661 60.7539 53.2451 60.555 53.2451C60.3574 53.2451 60.1679 53.1666 60.0282 53.0269C59.8885 52.8872 59.81 52.6977 59.81 52.5001C59.81 52.3025 59.8885 52.113 60.0282 51.9733C60.1679 51.8336 60.3574 51.7551 60.555 51.7551V51.7451ZM37.5 41.2801C37.494 40.1859 37.8636 39.1228 38.547 38.2683C39.2304 37.4138 40.1863 36.8197 41.255 36.5851C41.3848 36.5597 41.4993 36.4838 41.5733 36.3742C41.6474 36.2645 41.6749 36.13 41.65 36.0001C41.6232 34.8586 42.0147 33.7466 42.7507 32.8737C43.4867 32.0007 44.5164 31.427 45.646 31.2604C46.7757 31.0938 47.9272 31.346 48.8838 31.9694C49.8404 32.5928 50.5362 33.5444 50.84 34.6451C50.8604 34.7143 50.8955 34.7783 50.943 34.8327C50.9904 34.8871 51.0491 34.9305 51.115 34.9601C51.1808 34.9905 51.2525 35.0063 51.325 35.0063C51.3975 35.0063 51.4692 34.9905 51.535 34.9601C52.3457 34.5751 53.2325 34.3769 54.13 34.3801C55.083 34.3801 56.023 34.6014 56.8759 35.0265C57.7288 35.4517 58.4713 36.0691 59.045 36.8301C59.0905 36.8893 59.1487 36.9375 59.2154 36.9713C59.282 37.005 59.3553 37.0234 59.43 37.0251C63.075 37.0701 65.29 41.4751 63.205 44.4901H38.705C37.9206 43.6057 37.4913 42.4622 37.5 41.2801ZM63.035 48.7251C62.8361 48.7251 62.6453 48.6461 62.5047 48.5054C62.364 48.3648 62.285 48.174 62.285 47.9751C62.285 47.7762 62.364 47.5854 62.5047 47.4447C62.6453 47.3041 62.8361 47.2251 63.035 47.2251C63.2339 47.2251 63.4247 47.3041 63.5653 47.4447C63.706 47.5854 63.785 47.7762 63.785 47.9751C63.785 48.174 63.706 48.3648 63.5653 48.5054C63.4247 48.6461 63.2339 48.7251 63.035 48.7251Z" fill="#09A5D8"/>
<path d="M56.31 53.76C55.9367 53.7606 55.5736 53.8816 55.2746 54.105C54.9755 54.3284 54.7565 54.6422 54.65 55H51.745V51C51.745 50.8674 51.6923 50.7402 51.5986 50.6464C51.5048 50.5527 51.3776 50.5 51.245 50.5C51.1124 50.5 50.9852 50.5527 50.8914 50.6464C50.7977 50.7402 50.745 50.8674 50.745 51V55H48C47.88 54.6013 47.6206 54.259 47.2692 54.0357C46.9178 53.8124 46.4978 53.7229 46.0859 53.7835C45.674 53.8441 45.2976 54.0509 45.0255 54.366C44.7533 54.6812 44.6036 55.0836 44.6036 55.5C44.6036 55.9164 44.7533 56.3188 45.0255 56.634C45.2976 56.9491 45.674 57.1559 46.0859 57.2165C46.4978 57.2771 46.9178 57.1876 47.2692 56.9643C47.6206 56.741 47.88 56.3987 48 56H54.655C54.7486 56.3076 54.9259 56.5832 55.167 56.796C55.4081 57.0087 55.7036 57.1503 56.0205 57.2048C56.3374 57.2594 56.6632 57.2248 56.9616 57.1049C57.26 56.9851 57.5192 56.7846 57.7103 56.526C57.9014 56.2674 58.0169 55.9607 58.0438 55.6403C58.0707 55.3198 58.0081 54.9982 57.8628 54.7113C57.7176 54.4244 57.4955 54.1836 57.2213 54.0156C56.9471 53.8476 56.6316 53.7591 56.31 53.76ZM46.335 56.235C46.1499 56.2197 45.9773 56.1354 45.8515 55.9988C45.7256 55.8622 45.6558 55.6832 45.6558 55.4975C45.6558 55.3118 45.7256 55.1328 45.8515 54.9962C45.9773 54.8596 46.1499 54.7753 46.335 54.76C46.5201 54.7753 46.6927 54.8596 46.8185 54.9962C46.9444 55.1328 47.0142 55.3118 47.0142 55.4975C47.0142 55.6832 46.9444 55.8622 46.8185 55.9988C46.6927 56.1354 46.5201 56.2197 46.335 56.235ZM56.31 56.235C56.1249 56.2197 55.9523 56.1354 55.8265 55.9988C55.7006 55.8622 55.6308 55.6832 55.6308 55.4975C55.6308 55.3118 55.7006 55.1328 55.8265 54.9962C55.9523 54.8596 56.1249 54.7753 56.31 54.76C56.4951 54.7753 56.6677 54.8596 56.7935 54.9962C56.9194 55.1328 56.9892 55.3118 56.9892 55.4975C56.9892 55.6832 56.9194 55.8622 56.7935 55.9988C56.6677 56.1354 56.4951 56.2197 56.31 56.235Z" fill="#09A5D8"/>
<defs>
<filter id="filter0_d_39_2235" x="0.714286" y="0" width="100.571" height="100.571" filterUnits="userSpaceOnUse" color-interpolation-filters="sRGB">
<feFlood flood-opacity="0" result="BackgroundImageFix"/>
<feColorMatrix in="SourceAlpha" type="matrix" values="0 0 0 0 0 0 0 0 0 0 0 0 0 0 0 0 0 0 127 0" result="hardAlpha"/>
<feOffset dy="6.28571"/>
<feGaussianBlur stdDeviation="7.14286"/>
<feComposite in2="hardAlpha" operator="out"/>
<feColorMatrix type="matrix" values="0 0 0 0 0 0 0 0 0 0 0 0 0 0 0 0 0 0 0.06 0"/>
<feBlend mode="normal" in2="BackgroundImageFix" result="effect1_dropShadow_39_2235"/>
<feBlend mode="normal" in="SourceGraphic" in2="effect1_dropShadow_39_2235" result="shape"/>
</filter>
</defs>
</svg>
