<svg width="102" height="101" viewBox="0 0 102 101" fill="none" xmlns="http://www.w3.org/2000/svg">
<g filter="url(#filter0_d_39_2111)">
<circle cx="51" cy="44" r="36" fill="white"/>
</g>
<g clip-path="url(#clip0_39_2111)">
<path d="M60.3785 44C60.3785 43.4462 60.5631 42.9416 60.8708 42.5231C60.6492 41.2062 60.1323 39.9939 59.3938 38.9477C58.8831 38.8677 58.3908 38.6462 58.0031 38.2523C57.6154 37.8585 57.3815 37.3662 57.3077 36.8616C56.2615 36.1231 55.0492 35.6062 53.7323 35.3846C53.32 35.6923 52.8092 35.877 52.2554 35.877C51.7015 35.877 51.1969 35.6923 50.7785 35.3846C49.4615 35.6062 48.2492 36.1231 47.2031 36.8616C47.1231 37.3723 46.9015 37.8646 46.5077 38.2523C46.1138 38.64 45.6215 38.8739 45.1169 38.9477C44.3785 39.9939 43.8615 41.2062 43.64 42.5231C43.9477 42.9354 44.1323 43.4462 44.1323 44C44.1323 44.5539 43.9477 45.0585 43.64 45.477C43.8615 46.7939 44.3785 48.0062 45.1169 49.0523C45.6277 49.1323 46.12 49.3539 46.5077 49.7477C46.9015 50.1416 47.1292 50.6339 47.2031 51.1385C48.2492 51.877 49.4615 52.3939 50.7785 52.6154C51.1908 52.3077 51.7015 52.1231 52.2554 52.1231C52.8092 52.1231 53.3138 52.3077 53.7323 52.6154C55.0492 52.3939 56.2615 51.877 57.3077 51.1385C57.3877 50.6277 57.6092 50.1354 58.0031 49.7477C58.3969 49.3539 58.8892 49.1262 59.3938 49.0523C60.1323 48.0062 60.6492 46.7939 60.8708 45.477C60.5631 45.0646 60.3785 44.5539 60.3785 44Z" fill="#09A5D8"/>
<path d="M52.2554 49.5385C55.3142 49.5385 57.7939 47.0588 57.7939 44C57.7939 40.9412 55.3142 38.4615 52.2554 38.4615C49.1966 38.4615 46.7169 40.9412 46.7169 44C46.7169 47.0588 49.1966 49.5385 52.2554 49.5385Z" fill="#09A5D8"/>
<path d="M36.2554 44C36.2554 35.1631 43.4185 28 52.2554 28V30.4615C44.7785 30.4615 38.7169 36.5231 38.7169 44" fill="#09A5D8"/>
<path d="M37.4862 47.6923L35.0246 44H39.9477L37.4862 47.6923Z" fill="#09A5D8"/>
<path d="M60.2554 57.8523C52.6 62.2708 42.8154 59.6492 38.3969 51.9938L40.5262 50.7631C44.2677 57.2369 52.5446 59.4584 59.0185 55.7169" fill="#09A5D8"/>
<path d="M62.8338 54.9415L60.8708 58.9231L58.4092 54.6584L62.8338 54.9415Z" fill="#09A5D8"/>
<path d="M60.2554 30.1416C67.9108 34.5601 70.5323 44.3447 66.1138 52.0001L63.9846 50.7693C67.7262 44.2954 65.5046 36.0124 59.0308 32.277" fill="#09A5D8"/>
<path d="M56.44 29.36L60.8708 29.0769L58.4092 33.3415L56.44 29.36Z" fill="#09A5D8"/>
</g>
<defs>
<filter id="filter0_d_39_2111" x="0.714286" y="4.76837e-07" width="100.571" height="100.571" filterUnits="userSpaceOnUse" color-interpolation-filters="sRGB">
<feFlood flood-opacity="0" result="BackgroundImageFix"/>
<feColorMatrix in="SourceAlpha" type="matrix" values="0 0 0 0 0 0 0 0 0 0 0 0 0 0 0 0 0 0 127 0" result="hardAlpha"/>
<feOffset dy="6.28571"/>
<feGaussianBlur stdDeviation="7.14286"/>
<feComposite in2="hardAlpha" operator="out"/>
<feColorMatrix type="matrix" values="0 0 0 0 0 0 0 0 0 0 0 0 0 0 0 0 0 0 0.06 0"/>
<feBlend mode="normal" in2="BackgroundImageFix" result="effect1_dropShadow_39_2111"/>
<feBlend mode="normal" in="SourceGraphic" in2="effect1_dropShadow_39_2111" result="shape"/>
</filter>
<clipPath id="clip0_39_2111">
<rect width="33.28" height="32" fill="white" transform="translate(35 28)"/>
</clipPath>
</defs>
</svg>
